<?xml version="1.0" encoding="UTF-8" standalone="no"?>
<!DOCTYPE svg PUBLIC "-//W3C//DTD SVG 1.1//EN" "http://www.w3.org/Graphics/SVG/1.1/DTD/svg11.dtd">
<svg width="100%" height="100%" viewBox="0 0 3334 3334" version="1.1" xmlns="http://www.w3.org/2000/svg" xmlns:xlink="http://www.w3.org/1999/xlink" xml:space="preserve" style="fill-rule:evenodd;clip-rule:evenodd;stroke-linejoin:round;stroke-miterlimit:1.41421;">
    <g transform="matrix(4.16667,0,0,4.16667,0,0)">
        <g transform="matrix(1.6129,0,0,1.6129,-216.129,-175.806)">
            <circle cx="382" cy="357" r="248" style="fill:rgb(255,131,134);"/>
        </g>
        <g transform="matrix(1.41866,0,0,1.41866,403,400)">
            <g transform="matrix(1,0,0,1,-250.8,-250.8)">
                <path d="M250.8,0C238.8,30.4 215.6,62.4 207.6,101.6C197.2,152.8 230.8,172 250.8,188.8L250.8,0Z" style="fill:rgb(128,188,43);fill-rule:nonzero;"/>
                <path d="M250.8,188.8L250.8,0C238.8,30.4 215.6,62.4 207.6,101.6" style="fill:rgb(104,165,25);fill-rule:nonzero;"/>
                <path d="M250.8,188.8L250.8,0C238.8,30.4 233.2,85.6 225.2,124" style="fill:rgb(82,140,0);fill-rule:nonzero;"/>
                <path d="M250.8,0C262.8,30.4 286,62.4 294,101.6C304.4,152.8 270.8,172 250.8,188.8L250.8,0Z" style="fill:rgb(128,188,43);fill-rule:nonzero;"/>
                <path d="M250.8,188.8L250.8,0C262.8,30.4 286,62.4 294,101.6" style="fill:rgb(104,165,25);fill-rule:nonzero;"/>
                <path d="M250.8,188.8L250.8,0C262.8,30.4 268.4,85.6 276.4,124" style="fill:rgb(82,140,0);fill-rule:nonzero;"/>
                <path d="M250.8,501.6C248.4,501.6 246.8,500 246.8,497.6L246.8,13.6C246.8,11.2 248.4,9.6 250.8,9.6C253.2,9.6 254.8,11.2 254.8,13.6L254.8,497.6C254.8,499.2 253.2,501.6 250.8,501.6Z" style="fill:rgb(2,36,62);fill-rule:nonzero;"/>
                <path d="M90.8,158.4C102.8,187.2 109.2,224.8 130.8,256.8C158.8,298.4 194.8,288.8 219.6,286.4L90.8,158.4Z" style="fill:rgb(128,188,43);fill-rule:nonzero;"/>
                <path d="M218.8,286.4L90.8,158.4C102.8,187.2 109.2,224.8 130.8,256.8" style="fill:rgb(104,165,25);fill-rule:nonzero;"/>
                <path d="M218.8,286.4L90.8,158.4C102.8,187.2 136.4,228 158,260" style="fill:rgb(82,140,0);fill-rule:nonzero;"/>
                <path d="M90.8,158.4C119.6,170.4 157.2,176.8 189.2,198.4C230.8,226.4 221.2,262.4 218.8,287.2L90.8,158.4Z" style="fill:rgb(128,188,43);fill-rule:nonzero;"/>
                <path d="M218.8,286.4L90.8,158.4C119.6,170.4 157.2,176.8 189.2,198.4" style="fill:rgb(104,165,25);fill-rule:nonzero;"/>
                <path d="M218.8,286.4L90.8,158.4C119.6,170.4 160.4,204 192.4,225.6" style="fill:rgb(82,140,0);fill-rule:nonzero;"/>
                <path d="M126.8,321.6C136.4,344 141.2,373.6 158,399.2C179.6,432 208.4,424.8 227.6,422.4L126.8,321.6Z" style="fill:rgb(128,188,43);fill-rule:nonzero;"/>
                <path d="M227.6,422.4L126.8,321.6C136.4,344 141.2,373.6 158,399.2" style="fill:rgb(104,165,25);fill-rule:nonzero;"/>
                <path d="M227.6,422.4L126.8,321.6C136.4,344 162.8,376.8 179.6,401.6" style="fill:rgb(82,140,0);fill-rule:nonzero;"/>
                <path d="M126.8,321.6C149.2,331.2 178.8,336 204.4,352.8C237.2,374.4 230,403.2 227.6,422.4L126.8,321.6Z" style="fill:rgb(128,188,43);fill-rule:nonzero;"/>
                <path d="M226.8,422.4L126.8,321.6C149.2,331.2 178.8,336 204.4,352.8" style="fill:rgb(104,165,25);fill-rule:nonzero;"/>
                <path d="M226.8,422.4L126.8,321.6C149.2,331.2 182,357.6 206.8,374.4" style="fill:rgb(82,140,0);fill-rule:nonzero;"/>
                <g>
                    <path d="M250,448.8C249.2,448.8 247.6,448.8 246.8,448L146.8,347.2C145.2,345.6 145.2,343.2 146.8,341.6C148.4,340 150.8,340 152.4,341.6L252.4,441.6C254,443.2 254,445.6 252.4,447.2C252.4,448.8 250.8,448.8 250,448.8Z" style="fill:rgb(2,36,62);fill-rule:nonzero;"/>
                    <path d="M250.8,321.6C250,321.6 248.4,321.6 247.6,320.8L146.8,219.2C145.2,217.6 145.2,215.2 146.8,213.6C148.4,212 150.8,212 152.4,213.6L253.2,314.4C254.8,316 254.8,318.4 253.2,320C252.4,320.8 251.6,321.6 250.8,321.6Z" style="fill:rgb(2,36,62);fill-rule:nonzero;"/>
                </g>
                <path d="M410.8,120C398.8,148.8 392.4,186.4 370.8,218.4C342.8,260 306.8,250.4 282,248L410.8,120Z" style="fill:rgb(128,188,43);fill-rule:nonzero;"/>
                <path d="M282.8,248L410.8,120C398.8,148.8 392.4,186.4 370.8,218.4" style="fill:rgb(104,165,25);fill-rule:nonzero;"/>
                <path d="M282.8,248L410.8,120C398.8,148.8 365.2,189.6 343.6,221.6" style="fill:rgb(82,140,0);fill-rule:nonzero;"/>
                <path d="M410.8,120C382,132 344.4,138.4 312.4,160C270.8,188 280.4,224 282.8,248.8L410.8,120Z" style="fill:rgb(128,188,43);fill-rule:nonzero;"/>
                <path d="M282.8,248L410.8,120C382,132 344.4,138.4 312.4,160" style="fill:rgb(104,165,25);fill-rule:nonzero;"/>
                <path d="M282.8,248L410.8,120C382,132 341.2,165.6 309.2,187.2" style="fill:rgb(82,140,0);fill-rule:nonzero;"/>
                <path d="M374.8,283.2C365.2,305.6 360.4,335.2 343.6,360.8C322,393.6 293.2,386.4 274,384L374.8,283.2Z" style="fill:rgb(128,188,43);fill-rule:nonzero;"/>
                <path d="M274,384L374.8,283.2C365.2,305.6 360.4,335.2 343.6,360.8" style="fill:rgb(104,165,25);fill-rule:nonzero;"/>
                <path d="M274,384L374.8,283.2C365.2,305.6 338.8,338.4 322,363.2" style="fill:rgb(82,140,0);fill-rule:nonzero;"/>
                <path d="M374.8,283.2C352.4,292.8 322.8,297.6 297.2,314.4C264.4,336 271.6,364.8 274,384L374.8,283.2Z" style="fill:rgb(128,188,43);fill-rule:nonzero;"/>
                <path d="M274.8,384L375.6,283.2C353.2,292.8 323.6,297.6 298,314.4" style="fill:rgb(104,165,25);fill-rule:nonzero;"/>
                <path d="M274.8,384L375.6,283.2C353.2,292.8 320.4,319.2 295.6,336" style="fill:rgb(82,140,0);fill-rule:nonzero;"/>
                <g>
                    <path d="M252.4,410.4C251.6,410.4 250,410.4 249.2,409.6C247.6,408 247.6,405.6 249.2,404L349.2,304C350.8,302.4 353.2,302.4 354.8,304C356.4,305.6 356.4,308 354.8,309.6L254.8,409.6C254,410.4 253.2,410.4 252.4,410.4Z" style="fill:rgb(2,36,62);fill-rule:nonzero;"/>
                    <path d="M252.4,281.6C251.6,281.6 250,281.6 249.2,280.8C247.6,279.2 247.6,276.8 249.2,275.2L349.2,175.2C350.8,173.6 353.2,173.6 354.8,175.2C356.4,176.8 356.4,179.2 354.8,180.8L254.8,280.8C254,281.6 253.2,281.6 252.4,281.6Z" style="fill:rgb(2,36,62);fill-rule:nonzero;"/>
                </g>
            </g>
        </g>
    </g>
</svg>
