<?xml version="1.0" encoding="UTF-8" standalone="no"?>
<!DOCTYPE svg PUBLIC "-//W3C//DTD SVG 1.1//EN" "http://www.w3.org/Graphics/SVG/1.1/DTD/svg11.dtd">
<svg width="100%" height="100%" viewBox="0 0 800 800" version="1.1" xmlns="http://www.w3.org/2000/svg" xmlns:xlink="http://www.w3.org/1999/xlink" xml:space="preserve" style="fill-rule:evenodd;clip-rule:evenodd;stroke-linecap:round;stroke-linejoin:round;stroke-miterlimit:1.5;">
    <g transform="matrix(1.49533,0,0,1.49533,-177.944,-276.636)">
        <g id="Layer2">
            <circle cx="386.5" cy="452.5" r="267.5" style="fill:rgb(9,180,145);"/>
        </g>
    </g>
    <g transform="matrix(1.14608,0,0,1.14608,-72.508,36.3353)">
        <g id="Layer1">
            <g>
                <g transform="matrix(1,0,0,1,-0.480099,-1.13491)">
                    <g>
                        <g transform="matrix(0.739968,-0.330527,-0.305081,-0.683,393.041,736.261)">
                            <rect x="196" y="325" width="238" height="88" style="fill:rgb(35,41,40);"/>
                        </g>
                        <g transform="matrix(0.276786,0,0,0.987427,296.103,-81.5026)">
                            <path d="M419,477L531,560L419,560L419,477Z" style="fill:rgb(35,41,40);stroke:rgb(35,41,40);stroke-width:0.25px;"/>
                        </g>
                        <g transform="matrix(0.841277,-0.375032,-0.535013,-1.20015,470.065,1038.38)">
                            <path d="M423.262,434.502C433.622,429.941 439.077,424.768 439.077,419.501C439.077,402.943 386.185,389.5 321.038,389.5C255.891,389.5 203,402.943 203,419.501C203,424.768 208.454,429.941 218.814,434.502L423.262,434.502Z" style="fill:rgb(35,41,40);stroke:rgb(35,41,40);stroke-width:0.32px;"/>
                        </g>
                        <g transform="matrix(1.9353,-0.779285,0.309406,0.768388,-549.32,424.48)">
                            <path d="M433.757,394.808L435.821,449.711L431.693,449.711L433.757,394.808Z" style="fill:rgb(35,41,40);"/>
                        </g>
                    </g>
                    <g transform="matrix(0.105179,0,0,1,373.394,-32.4056)">
                        <rect x="371.396" y="422.041" width="26.134" height="18.727" style="fill:rgb(35,41,40);"/>
                    </g>
                </g>
                <g>
                    <g>
                        <g transform="matrix(0.739373,0.330261,-0.305081,0.683,190.34,24.0902)">
                            <rect x="196" y="325" width="238" height="88" style="fill:rgb(42,45,45);"/>
                        </g>
                        <g transform="matrix(-0.241071,0,0,0.972151,513.085,-74.216)">
                            <path d="M419,477L531,560L419,560L419,477Z" style="fill:rgb(42,45,45);stroke:rgb(42,45,45);stroke-width:0.51px;"/>
                        </g>
                        <g transform="matrix(-0.850942,-0.37934,0.510626,-1.14544,369.319,1016.17)">
                            <path d="M423.262,434.502C433.622,429.941 439.077,424.768 439.077,419.501C439.077,402.943 386.185,389.5 321.038,389.5C255.891,389.5 203,402.943 203,419.501C203,424.768 208.454,429.941 218.814,434.502L423.262,434.502Z" style="fill:rgb(42,45,45);stroke:rgb(42,45,45);stroke-width:0.33px;"/>
                        </g>
                        <g transform="matrix(-2.70339,-1.03347,-0.300268,0.785446,1702.67,528.736)">
                            <path d="M433.757,394.808L435.821,449.711L431.693,449.711L433.757,394.808Z" style="fill:rgb(42,45,45);"/>
                        </g>
                    </g>
                    <g transform="matrix(0.105179,0,0,1,370.286,-32.4218)">
                        <rect x="371.396" y="422.041" width="26.134" height="18.727" style="fill:rgb(42,45,45);"/>
                    </g>
                </g>
                <g>
                    <g transform="matrix(1.15887,0,0,0.774914,-134.705,-74.6552)">
                        <path d="M472,308L726,453.5L472,599L218,453.5L472,308Z" style="fill:rgb(35,35,35);"/>
                    </g>
                    <g>
                        <g transform="matrix(0.261034,-0.581162,1.05873,0.475539,14.3972,394.394)">
                            <rect x="412.281" y="278.268" width="12.719" height="121.732" style="fill:rgb(188,169,22);"/>
                        </g>
                        <g transform="matrix(-0.637093,2.01228e-16,-1.02029e-16,-0.426643,811.49,508.271)">
                            <rect x="412.281" y="278.268" width="12.719" height="121.732" style="fill:rgb(188,169,22);"/>
                        </g>
                        <g transform="matrix(1,0,0,1,0.200813,-17.7941)">
                            <g transform="matrix(1,0,0,0.813831,-12.0911,60.0405)">
                                <ellipse cx="556.869" cy="437.108" rx="12.879" ry="15.89" style="fill:rgb(188,169,22);"/>
                            </g>
                            <g transform="matrix(0.622012,0,0,0.811006,195.829,31.888)">
                                <path d="M561,470.322L561,514L531.899,514L561,470.322Z" style="fill:rgb(188,169,22);stroke:rgb(188,169,22);stroke-width:1.21px;"/>
                                <g transform="matrix(-1,0,0,1,1122,0)">
                                    <path d="M561,470.322L561,514L531.899,514L561,470.322Z" style="fill:rgb(188,169,22);stroke:rgb(188,169,22);stroke-width:1.21px;"/>
                                </g>
                            </g>
                            <g transform="matrix(-1.03512,7.90088e-17,-7.63278e-17,-1,1108.69,907.745)">
                                <path d="M560.454,462.436C562.043,461.049 562.879,459.475 562.879,457.873C562.879,452.835 554.768,448.745 544.777,448.745C534.787,448.745 526.676,452.835 526.676,457.873C526.676,459.475 527.512,461.049 529.101,462.436L560.454,462.436Z" style="fill:rgb(188,169,22);"/>
                            </g>
                        </g>
                    </g>
                    <g transform="matrix(1,0,0,0.92322,134.821,-233.779)">
                        <ellipse cx="276.69" cy="554.632" rx="27.009" ry="19.536" style="fill:rgb(42,45,45);stroke:rgb(42,45,45);stroke-width:0.38px;"/>
                    </g>
                </g>
            </g>
        </g>
    </g>
</svg>
