<?xml version="1.0" encoding="UTF-8" standalone="no"?>
<!DOCTYPE svg PUBLIC "-//W3C//DTD SVG 1.1//EN" "http://www.w3.org/Graphics/SVG/1.1/DTD/svg11.dtd">
<svg width="100%" height="100%" viewBox="0 0 950 350" version="1.1" xmlns="http://www.w3.org/2000/svg" xmlns:xlink="http://www.w3.org/1999/xlink" xml:space="preserve" style="fill-rule:evenodd;clip-rule:evenodd;stroke-linejoin:round;stroke-miterlimit:1.41421;">
    <g transform="matrix(1,0,0,1,-25,-175)">
        <rect x="0" y="0" width="1000" height="700" style="fill:rgb(255,153,51);"/>
    </g>
    <g id="Layer1" transform="matrix(1,0,0,1,-25,-175)">
        <g transform="matrix(0.804404,0,0,0.804404,190.221,214.786)">
            <path d="M276.145,233.892C289.278,233.892 299.362,231.075 306.395,225.442C313.428,219.809 316.945,211.592 316.945,200.792C316.945,195.925 315.995,191.559 314.095,187.692C312.195,183.825 309.495,180.525 305.995,177.792C302.495,175.059 298.228,172.959 293.195,171.492C288.162,170.025 282.512,169.292 276.245,169.292L238.245,169.292L238.245,233.892L276.145,233.892ZM238.245,102.192L238.245,165.092L271.545,165.092C278.612,165.092 284.628,164.142 289.595,162.242C294.562,160.342 298.628,157.875 301.795,154.842C304.962,151.809 307.262,148.409 308.695,144.642C310.128,140.875 310.845,137.159 310.845,133.492C310.845,123.425 307.562,115.692 300.995,110.292C294.428,104.892 284.378,102.192 270.845,102.192L238.245,102.192ZM270.845,97.792C286.178,97.792 297.578,100.859 305.045,106.992C312.512,113.125 316.245,121.825 316.245,133.092C316.245,137.025 315.512,140.809 314.045,144.442C312.578,148.075 310.528,151.392 307.895,154.392C305.262,157.392 302.062,159.959 298.295,162.092C294.528,164.225 290.345,165.725 285.745,166.592C291.478,167.192 296.612,168.409 301.145,170.242C305.678,172.075 309.528,174.442 312.695,177.342C315.862,180.242 318.278,183.675 319.945,187.642C321.612,191.609 322.445,196.025 322.445,200.892C322.445,206.892 321.412,212.209 319.345,216.842C317.278,221.475 314.262,225.392 310.295,228.592C306.328,231.792 301.478,234.225 295.745,235.892C290.012,237.559 283.478,238.392 276.145,238.392L232.745,238.392L232.745,97.792L270.845,97.792Z" style="fill-rule:nonzero;"/>
            <path d="M463.245,97.792L463.245,238.392L457.645,238.392L457.645,169.292L363.145,169.292L363.145,238.392L357.645,238.392L357.645,97.792L363.145,97.792L363.145,164.892L457.645,164.892L457.645,97.792L463.245,97.792Z" style="fill-rule:nonzero;"/>
            <path d="M642.845,97.792L642.845,238.392L638.045,238.392L638.045,109.792C638.045,109.259 638.062,108.725 638.095,108.192C638.128,107.659 638.145,107.125 638.145,106.592L579.145,210.092C578.478,211.225 577.678,211.792 576.745,211.792L575.745,211.792C574.745,211.792 573.912,211.225 573.245,210.092L512.445,106.392C512.512,106.992 512.562,107.575 512.595,108.142C512.628,108.709 512.645,109.259 512.645,109.792L512.645,238.392L507.845,238.392L507.845,97.792L511.145,97.792C511.678,97.792 512.128,97.875 512.495,98.042C512.862,98.209 513.212,98.559 513.545,99.092L574.545,202.692C575.145,203.959 575.712,205.192 576.245,206.392C576.512,205.792 576.778,205.175 577.045,204.542C577.312,203.909 577.612,203.259 577.945,202.592L637.145,99.092C637.478,98.559 637.828,98.209 638.195,98.042C638.562,97.875 639.012,97.792 639.545,97.792L642.845,97.792Z" style="fill-rule:nonzero;"/>
            <path d="M753.845,112.392C753.445,113.059 752.878,113.392 752.145,113.392C751.412,113.392 750.395,112.742 749.095,111.442C747.795,110.142 745.978,108.692 743.645,107.092C741.312,105.492 738.312,104.042 734.645,102.742C730.978,101.442 726.445,100.792 721.045,100.792C715.578,100.792 710.728,101.609 706.495,103.242C702.262,104.875 698.712,107.092 695.845,109.892C692.978,112.692 690.812,115.909 689.345,119.542C687.878,123.175 687.145,126.992 687.145,130.992C687.145,136.125 688.178,140.409 690.245,143.842C692.312,147.275 695.045,150.159 698.445,152.492C701.845,154.825 705.695,156.792 709.995,158.392C714.295,159.992 718.712,161.542 723.245,163.042C727.778,164.542 732.195,166.142 736.495,167.842C740.795,169.542 744.645,171.692 748.045,174.292C751.445,176.892 754.178,180.109 756.245,183.942C758.312,187.775 759.345,192.525 759.345,198.192C759.345,203.992 758.362,209.442 756.395,214.542C754.428,219.642 751.562,224.075 747.795,227.842C744.028,231.609 739.428,234.575 733.995,236.742C728.562,238.909 722.378,239.992 715.445,239.992C710.712,239.992 706.428,239.575 702.595,238.742C698.762,237.909 695.228,236.709 691.995,235.142C688.762,233.575 685.795,231.659 683.095,229.392C680.395,227.125 677.812,224.559 675.345,221.692L676.645,219.692C676.978,219.359 677.262,219.109 677.495,218.942C677.728,218.775 678.078,218.692 678.545,218.692C679.012,218.692 679.662,219.109 680.495,219.942C681.328,220.775 682.412,221.809 683.745,223.042C685.078,224.275 686.678,225.609 688.545,227.042C690.412,228.475 692.628,229.809 695.195,231.042C697.762,232.275 700.728,233.309 704.095,234.142C707.462,234.975 711.278,235.392 715.545,235.392C721.612,235.392 727.045,234.442 731.845,232.542C736.645,230.642 740.695,228.042 743.995,224.742C747.295,221.442 749.812,217.592 751.545,213.192C753.278,208.792 754.145,204.092 754.145,199.092C754.145,193.759 753.112,189.359 751.045,185.892C748.978,182.425 746.262,179.525 742.895,177.192C739.528,174.859 735.678,172.909 731.345,171.342C727.012,169.775 722.595,168.275 718.095,166.842C713.595,165.409 709.178,163.842 704.845,162.142C700.512,160.442 696.662,158.275 693.295,155.642C689.928,153.009 687.212,149.742 685.145,145.842C683.078,141.942 682.045,137.059 682.045,131.192C682.045,126.592 682.912,122.192 684.645,117.992C686.378,113.792 688.895,110.075 692.195,106.842C695.495,103.609 699.562,101.025 704.395,99.092C709.228,97.159 714.778,96.192 721.045,96.192C728.112,96.192 734.362,97.325 739.795,99.592C745.228,101.859 750.312,105.392 755.045,110.192L753.845,112.392Z" style="fill-rule:nonzero;"/>
            <path d="M799.245,102.492L799.245,166.892L866.745,166.892L866.745,171.592L799.245,171.592L799.245,238.392L793.745,238.392L793.745,97.792L876.745,97.792L876.745,102.492L799.245,102.492Z" style="fill-rule:nonzero;"/>
        </g>
        <g transform="matrix(0.409996,0,0,0.409996,206.242,350)">
            <g transform="matrix(1,0,0,1,-248.1,-248.1)">
                <clipPath id="_clip1">
                    <rect x="0" y="0" width="496.2" height="496.2"/>
                </clipPath>
                <g clip-path="url(#_clip1)">
                    <path d="M0,248.1C0,111.1 111.1,0 248.1,0C385.1,0 496.2,111.1 496.2,248.1C496.2,385.1 385.1,496.2 248.1,496.2C111.1,496.2 0,385.1 0,248.1Z" style="fill:rgb(108,67,78);fill-rule:nonzero;"/>
                    <g>
                        <path d="M249.1,347.4C249.2,347.4 249.4,347.4 249.5,347.3C249.4,347.2 249.4,347.1 249.3,347.1C249.3,347.2 249.2,347.3 249.1,347.4Z" style="fill:rgb(242,165,165);fill-rule:nonzero;"/>
                        <path d="M324.8,310.9C324.7,310.9 324.6,310.9 324.5,310.9C324.6,311 324.6,311 324.7,311.1C324.8,311.1 324.8,311 324.8,310.9Z" style="fill:rgb(242,165,165);fill-rule:nonzero;"/>
                        <path d="M248.1,133.2C178.2,203.1 178.2,316.4 248.1,386.4L248.1,386.5C318,316.5 318,203.1 248.1,133.2Z" style="fill:rgb(242,165,165);fill-rule:nonzero;"/>
                        <path d="M171.4,311C171.4,311.1 171.4,311.1 171.4,311.2C171.5,311.1 171.6,311.1 171.6,311C171.5,311 171.5,311 171.4,311Z" style="fill:rgb(242,165,165);fill-rule:nonzero;"/>
                        <path d="M288.1,286.5C288,286.5 288,286.6 287.9,286.6C288,286.6 288.1,286.6 288.2,286.7C288.1,286.7 288.1,286.6 288.1,286.5Z" style="fill:rgb(242,165,165);fill-rule:nonzero;"/>
                    </g>
                    <path d="M146.4,154.6C110.4,246.7 156,350.5 248.1,386.5L248.1,386.6C284.1,294.4 238.5,190.5 146.4,154.6Z" style="fill:rgb(226,141,141);fill-rule:nonzero;"/>
                    <g>
                        <path d="M147.6,348.2C147.6,348.3 147.7,348.3 147.7,348.4C147.7,348.3 147.8,348.2 147.8,348.2C147.7,348.2 147.6,348.2 147.6,348.2Z" style="fill:rgb(242,165,165);fill-rule:nonzero;"/>
                        <path d="M207.7,286.5C207.8,286.5 207.8,286.6 207.9,286.6C207.8,286.6 207.7,286.6 207.6,286.7C207.6,286.7 207.7,286.6 207.7,286.5Z" style="fill:rgb(242,165,165);fill-rule:nonzero;"/>
                    </g>
                    <path d="M349.3,154.6C385.3,246.7 339.8,350.5 247.6,386.5L247.6,386.6C211.7,294.4 257.2,190.5 349.3,154.6Z" style="fill:rgb(226,141,141);fill-rule:nonzero;"/>
                    <path d="M348.2,348.2C348.2,348.3 348.1,348.3 348.1,348.4C348.1,348.3 348,348.2 348,348.2C348,348.2 348.1,348.2 348.2,348.2Z" style="fill:rgb(242,165,165);fill-rule:nonzero;"/>
                    <g>
                        <path d="M249,278.7C248.9,278.8 248.9,278.8 248.8,278.9C248.9,278.9 249,278.9 249.1,278.9C249.1,278.9 249.1,278.8 249,278.7Z" style="fill:rgb(206,130,130);fill-rule:nonzero;"/>
                        <path d="M69.1,207.3C69,306.1 149.2,386.3 248.1,386.3L248.2,386.4C248.2,287.5 168,207.3 69.1,207.3Z" style="fill:rgb(206,130,130);fill-rule:nonzero;"/>
                        <path d="M140.5,387.3C140.6,387.3 140.6,387.4 140.7,387.4C140.7,387.3 140.7,387.2 140.7,387.1C140.7,387.2 140.6,387.3 140.5,387.3Z" style="fill:rgb(206,130,130);fill-rule:nonzero;"/>
                        <path d="M247.4,278.7C247.5,278.8 247.5,278.8 247.6,278.9C247.5,278.9 247.4,278.9 247.3,278.9C247.4,278.9 247.4,278.8 247.4,278.7Z" style="fill:rgb(206,130,130);fill-rule:nonzero;"/>
                        <path d="M427.4,207.3C427.5,306.1 347.3,386.3 248.4,386.3L248.3,386.4C248.3,287.5 328.5,207.3 427.4,207.3Z" style="fill:rgb(206,130,130);fill-rule:nonzero;"/>
                        <path d="M355.9,387.3C355.8,387.3 355.8,387.4 355.7,387.4C355.7,387.3 355.7,387.2 355.7,387.1C355.8,387.2 355.9,387.3 355.9,387.3Z" style="fill:rgb(206,130,130);fill-rule:nonzero;"/>
                    </g>
                </g>
            </g>
        </g>
        <g transform="matrix(0.578631,0,0,0.576356,194.491,271.132)">
            <path d="M325.22,324.526C327.956,324.526 330.057,323.939 331.522,322.765C332.988,321.592 333.72,319.88 333.72,317.63C333.72,316.616 333.522,315.706 333.127,314.901C332.731,314.095 332.168,313.407 331.439,312.838C330.71,312.269 329.821,311.831 328.772,311.526C327.724,311.22 326.547,311.067 325.241,311.067L317.324,311.067L317.324,324.526L325.22,324.526ZM317.324,297.088L317.324,310.192L324.262,310.192C325.734,310.192 326.988,309.994 328.022,309.598C329.057,309.203 329.904,308.689 330.564,308.057C331.224,307.425 331.703,306.717 332.002,305.932C332.3,305.147 332.449,304.373 332.449,303.609C332.449,301.512 331.765,299.901 330.397,298.776C329.029,297.651 326.936,297.088 324.116,297.088L317.324,297.088ZM324.116,296.171C327.311,296.171 329.686,296.81 331.241,298.088C332.797,299.366 333.574,301.178 333.574,303.526C333.574,304.345 333.422,305.133 333.116,305.89C332.811,306.647 332.383,307.338 331.835,307.963C331.286,308.588 330.62,309.123 329.835,309.567C329.05,310.012 328.179,310.324 327.22,310.505C328.415,310.63 329.484,310.883 330.429,311.265C331.373,311.647 332.175,312.14 332.835,312.744C333.495,313.348 333.998,314.064 334.345,314.89C334.692,315.717 334.866,316.637 334.866,317.651C334.866,318.901 334.651,320.008 334.22,320.973C333.79,321.939 333.161,322.755 332.335,323.421C331.508,324.088 330.498,324.595 329.304,324.942C328.109,325.289 326.748,325.463 325.22,325.463L316.179,325.463L316.179,296.171L324.116,296.171Z" style="fill-rule:nonzero;"/>
            <path d="M341.804,308.838C342.762,307.546 343.901,306.515 345.22,305.744C346.54,304.973 347.977,304.588 349.533,304.588C350.672,304.588 351.668,304.765 352.522,305.119C353.377,305.473 354.085,305.98 354.647,306.64C355.21,307.3 355.633,308.109 355.918,309.067C356.203,310.026 356.345,311.109 356.345,312.317L356.345,325.463L355.241,325.463L355.241,312.317C355.241,311.248 355.123,310.289 354.887,309.442C354.651,308.595 354.286,307.876 353.793,307.286C353.3,306.696 352.686,306.244 351.949,305.932C351.213,305.619 350.345,305.463 349.345,305.463C347.845,305.463 346.46,305.855 345.189,306.64C343.918,307.425 342.79,308.512 341.804,309.901L341.804,325.463L340.699,325.463L340.699,295.338L341.804,295.338L341.804,308.838Z" style="fill-rule:nonzero;"/>
            <path d="M364.783,304.921L364.783,325.463L363.699,325.463L363.699,304.921L364.783,304.921ZM365.679,297.505C365.679,297.699 365.637,297.88 365.554,298.046C365.47,298.213 365.363,298.362 365.231,298.494C365.099,298.626 364.946,298.73 364.772,298.807C364.599,298.883 364.422,298.921 364.241,298.921C363.852,298.921 363.515,298.779 363.231,298.494C362.946,298.21 362.804,297.88 362.804,297.505C362.804,297.116 362.946,296.779 363.231,296.494C363.515,296.21 363.852,296.067 364.241,296.067C364.422,296.067 364.599,296.105 364.772,296.182C364.946,296.258 365.099,296.362 365.231,296.494C365.363,296.626 365.47,296.779 365.554,296.953C365.637,297.126 365.679,297.31 365.679,297.505Z" style="fill-rule:nonzero;"/>
            <path d="M372.366,325.463L372.366,304.921L372.887,304.921C373.151,304.921 373.29,305.06 373.304,305.338L373.429,308.796C374.234,307.519 375.182,306.498 376.272,305.734C377.363,304.97 378.567,304.588 379.887,304.588C381.456,304.588 382.699,305.06 383.616,306.005C384.533,306.949 385.13,308.276 385.408,309.984C385.616,309.067 385.939,308.272 386.377,307.598C386.814,306.925 387.324,306.362 387.908,305.911C388.491,305.46 389.13,305.126 389.824,304.911C390.519,304.696 391.234,304.588 391.97,304.588C392.956,304.588 393.849,304.758 394.647,305.098C395.446,305.439 396.123,305.935 396.679,306.588C397.234,307.241 397.661,308.046 397.96,309.005C398.258,309.963 398.408,311.067 398.408,312.317L398.408,325.463L397.304,325.463L397.304,312.317C397.304,310.095 396.828,308.397 395.877,307.223C394.925,306.05 393.567,305.463 391.804,305.463C391.026,305.463 390.279,305.605 389.564,305.89C388.849,306.175 388.217,306.605 387.668,307.182C387.12,307.758 386.679,308.473 386.345,309.328C386.012,310.182 385.845,311.178 385.845,312.317L385.845,325.463L384.741,325.463L384.741,312.317C384.741,310.137 384.311,308.449 383.449,307.255C382.588,306.06 381.324,305.463 379.658,305.463C378.408,305.463 377.262,305.852 376.22,306.63C375.179,307.407 374.262,308.477 373.47,309.838L373.47,325.463L372.366,325.463Z" style="fill-rule:nonzero;"/>
            <path d="M417.199,315.171C413.005,315.31 409.904,315.831 407.897,316.734C405.89,317.637 404.887,318.907 404.887,320.546C404.887,321.31 405.015,321.97 405.272,322.526C405.529,323.081 405.87,323.543 406.293,323.911C406.717,324.279 407.199,324.55 407.741,324.723C408.283,324.897 408.838,324.984 409.408,324.984C410.297,324.984 411.109,324.883 411.845,324.682C412.581,324.48 413.262,324.206 413.887,323.859C414.512,323.512 415.095,323.102 415.637,322.63C416.179,322.157 416.699,321.657 417.199,321.13L417.199,315.171ZM404.908,307.838C405.936,306.782 407.012,305.977 408.137,305.421C409.262,304.866 410.547,304.588 411.991,304.588C413.061,304.588 413.991,304.758 414.783,305.098C415.574,305.439 416.231,305.928 416.752,306.567C417.272,307.206 417.658,307.98 417.908,308.89C418.158,309.8 418.283,310.824 418.283,311.963L418.283,325.463L417.908,325.463C417.63,325.463 417.47,325.317 417.429,325.026L417.22,321.984C416.651,322.567 416.081,323.095 415.512,323.567C414.942,324.039 414.338,324.439 413.699,324.765C413.061,325.092 412.373,325.345 411.637,325.526C410.901,325.706 410.088,325.796 409.199,325.796C408.547,325.796 407.901,325.699 407.262,325.505C406.623,325.31 406.047,325.005 405.533,324.588C405.019,324.171 404.606,323.633 404.293,322.973C403.981,322.314 403.824,321.519 403.824,320.588C403.824,319.685 404.085,318.866 404.606,318.13C405.127,317.394 405.936,316.758 407.033,316.223C408.13,315.689 409.519,315.265 411.199,314.953C412.88,314.64 414.88,314.456 417.199,314.401L417.199,311.963C417.199,309.907 416.755,308.31 415.866,307.171C414.977,306.032 413.658,305.463 411.908,305.463C410.866,305.463 409.97,305.612 409.22,305.911C408.47,306.21 407.845,306.543 407.345,306.911C406.845,307.279 406.446,307.612 406.147,307.911C405.849,308.21 405.623,308.359 405.47,308.359C405.331,308.359 405.206,308.282 405.095,308.13L404.908,307.838Z" style="fill-rule:nonzero;"/>
            <path d="M436.324,307.026C436.255,307.151 436.151,307.213 436.012,307.213C435.887,307.213 435.71,307.119 435.481,306.932C435.252,306.744 434.936,306.543 434.533,306.328C434.13,306.112 433.627,305.911 433.022,305.723C432.418,305.536 431.672,305.442 430.783,305.442C429.963,305.442 429.217,305.564 428.543,305.807C427.87,306.05 427.29,306.373 426.804,306.776C426.317,307.178 425.942,307.651 425.679,308.192C425.415,308.734 425.283,309.296 425.283,309.88C425.283,310.574 425.453,311.157 425.793,311.63C426.133,312.102 426.581,312.501 427.137,312.828C427.692,313.154 428.324,313.432 429.033,313.661C429.741,313.89 430.463,314.119 431.199,314.348C431.936,314.578 432.658,314.824 433.366,315.088C434.074,315.352 434.706,315.678 435.262,316.067C435.817,316.456 436.265,316.935 436.606,317.505C436.946,318.074 437.116,318.776 437.116,319.609C437.116,320.47 436.963,321.276 436.658,322.026C436.352,322.776 435.904,323.432 435.314,323.994C434.724,324.557 434.002,324.998 433.147,325.317C432.293,325.637 431.317,325.796 430.22,325.796C429.484,325.796 428.817,325.737 428.22,325.619C427.623,325.501 427.067,325.335 426.554,325.119C426.04,324.904 425.561,324.644 425.116,324.338C424.672,324.032 424.241,323.692 423.824,323.317L424.095,322.963C424.151,322.894 424.203,322.842 424.252,322.807C424.3,322.772 424.38,322.755 424.491,322.755C424.63,322.755 424.828,322.869 425.085,323.098C425.342,323.328 425.689,323.581 426.127,323.859C426.564,324.137 427.116,324.39 427.783,324.619C428.449,324.848 429.269,324.963 430.241,324.963C431.199,324.963 432.043,324.828 432.772,324.557C433.502,324.286 434.113,323.914 434.606,323.442C435.099,322.97 435.47,322.418 435.72,321.786C435.97,321.154 436.095,320.484 436.095,319.776C436.095,319.026 435.925,318.401 435.585,317.901C435.245,317.401 434.797,316.98 434.241,316.64C433.686,316.3 433.054,316.012 432.345,315.776C431.637,315.539 430.915,315.31 430.179,315.088C429.442,314.866 428.72,314.626 428.012,314.369C427.304,314.112 426.672,313.793 426.116,313.411C425.561,313.029 425.113,312.56 424.772,312.005C424.432,311.449 424.262,310.755 424.262,309.921C424.262,309.227 424.418,308.557 424.731,307.911C425.043,307.265 425.484,306.696 426.054,306.203C426.623,305.71 427.307,305.317 428.106,305.026C428.904,304.734 429.797,304.588 430.783,304.588C431.977,304.588 433.033,304.755 433.949,305.088C434.866,305.421 435.734,305.949 436.554,306.671L436.324,307.026Z" style="fill-rule:nonzero;"/>
            <path d="M454.637,315.171C450.442,315.31 447.342,315.831 445.335,316.734C443.328,317.637 442.324,318.907 442.324,320.546C442.324,321.31 442.453,321.97 442.71,322.526C442.967,323.081 443.307,323.543 443.731,323.911C444.154,324.279 444.637,324.55 445.179,324.723C445.72,324.897 446.276,324.984 446.845,324.984C447.734,324.984 448.547,324.883 449.283,324.682C450.019,324.48 450.699,324.206 451.324,323.859C451.949,323.512 452.533,323.102 453.074,322.63C453.616,322.157 454.137,321.657 454.637,321.13L454.637,315.171ZM442.345,307.838C443.373,306.782 444.449,305.977 445.574,305.421C446.699,304.866 447.984,304.588 449.429,304.588C450.498,304.588 451.429,304.758 452.22,305.098C453.012,305.439 453.668,305.928 454.189,306.567C454.71,307.206 455.095,307.98 455.345,308.89C455.595,309.8 455.72,310.824 455.72,311.963L455.72,325.463L455.345,325.463C455.067,325.463 454.908,325.317 454.866,325.026L454.658,321.984C454.088,322.567 453.519,323.095 452.949,323.567C452.38,324.039 451.776,324.439 451.137,324.765C450.498,325.092 449.811,325.345 449.074,325.526C448.338,325.706 447.526,325.796 446.637,325.796C445.984,325.796 445.338,325.699 444.699,325.505C444.061,325.31 443.484,325.005 442.97,324.588C442.456,324.171 442.043,323.633 441.731,322.973C441.418,322.314 441.262,321.519 441.262,320.588C441.262,319.685 441.522,318.866 442.043,318.13C442.564,317.394 443.373,316.758 444.47,316.223C445.567,315.689 446.956,315.265 448.637,314.953C450.317,314.64 452.317,314.456 454.637,314.401L454.637,311.963C454.637,309.907 454.192,308.31 453.304,307.171C452.415,306.032 451.095,305.463 449.345,305.463C448.304,305.463 447.408,305.612 446.658,305.911C445.908,306.21 445.283,306.543 444.783,306.911C444.283,307.279 443.883,307.612 443.585,307.911C443.286,308.21 443.061,308.359 442.908,308.359C442.769,308.359 442.644,308.282 442.533,308.13L442.345,307.838Z" style="fill-rule:nonzero;"/>
            <path d="M463.908,308.901C464.866,307.581 466.008,306.532 467.335,305.755C468.661,304.977 470.109,304.588 471.679,304.588C472.817,304.588 473.814,304.765 474.668,305.119C475.522,305.473 476.231,305.98 476.793,306.64C477.356,307.3 477.779,308.109 478.064,309.067C478.349,310.026 478.491,311.109 478.491,312.317L478.491,325.463L477.387,325.463L477.387,312.317C477.387,311.248 477.269,310.289 477.033,309.442C476.797,308.595 476.432,307.876 475.939,307.286C475.446,306.696 474.831,306.244 474.095,305.932C473.359,305.619 472.491,305.463 471.491,305.463C469.991,305.463 468.606,305.855 467.335,306.64C466.064,307.425 464.936,308.512 463.949,309.901L463.949,325.463L462.845,325.463L462.845,304.921L463.366,304.921C463.63,304.921 463.769,305.06 463.783,305.338L463.908,308.901Z" style="fill-rule:nonzero;"/>
            <path d="M486.929,304.921L486.929,325.463L485.845,325.463L485.845,304.921L486.929,304.921ZM487.824,297.505C487.824,297.699 487.783,297.88 487.699,298.046C487.616,298.213 487.508,298.362 487.377,298.494C487.245,298.626 487.092,298.73 486.918,298.807C486.745,298.883 486.567,298.921 486.387,298.921C485.998,298.921 485.661,298.779 485.377,298.494C485.092,298.21 484.949,297.88 484.949,297.505C484.949,297.116 485.092,296.779 485.377,296.494C485.661,296.21 485.998,296.067 486.387,296.067C486.567,296.067 486.745,296.105 486.918,296.182C487.092,296.258 487.245,296.362 487.377,296.494C487.508,296.626 487.616,296.779 487.699,296.953C487.783,297.126 487.824,297.31 487.824,297.505Z" style="fill-rule:nonzero;"/>
            <path d="M529.137,296.171L529.137,325.463L527.97,325.463L527.97,311.067L508.283,311.067L508.283,325.463L507.137,325.463L507.137,296.171L508.283,296.171L508.283,310.151L527.97,310.151L527.97,296.171L529.137,296.171Z" style="fill-rule:nonzero;"/>
            <path d="M548.366,315.171C544.172,315.31 541.071,315.831 539.064,316.734C537.057,317.637 536.054,318.907 536.054,320.546C536.054,321.31 536.182,321.97 536.439,322.526C536.696,323.081 537.036,323.543 537.46,323.911C537.883,324.279 538.366,324.55 538.908,324.723C539.449,324.897 540.005,324.984 540.574,324.984C541.463,324.984 542.276,324.883 543.012,324.682C543.748,324.48 544.429,324.206 545.054,323.859C545.679,323.512 546.262,323.102 546.804,322.63C547.345,322.157 547.866,321.657 548.366,321.13L548.366,315.171ZM536.074,307.838C537.102,306.782 538.179,305.977 539.304,305.421C540.429,304.866 541.713,304.588 543.158,304.588C544.227,304.588 545.158,304.758 545.949,305.098C546.741,305.439 547.397,305.928 547.918,306.567C548.439,307.206 548.824,307.98 549.074,308.89C549.324,309.8 549.449,310.824 549.449,311.963L549.449,325.463L549.074,325.463C548.797,325.463 548.637,325.317 548.595,325.026L548.387,321.984C547.817,322.567 547.248,323.095 546.679,323.567C546.109,324.039 545.505,324.439 544.866,324.765C544.227,325.092 543.54,325.345 542.804,325.526C542.067,325.706 541.255,325.796 540.366,325.796C539.713,325.796 539.067,325.699 538.429,325.505C537.79,325.31 537.213,325.005 536.699,324.588C536.186,324.171 535.772,323.633 535.46,322.973C535.147,322.314 534.991,321.519 534.991,320.588C534.991,319.685 535.252,318.866 535.772,318.13C536.293,317.394 537.102,316.758 538.199,316.223C539.297,315.689 540.686,315.265 542.366,314.953C544.047,314.64 546.047,314.456 548.366,314.401L548.366,311.963C548.366,309.907 547.922,308.31 547.033,307.171C546.144,306.032 544.824,305.463 543.074,305.463C542.033,305.463 541.137,305.612 540.387,305.911C539.637,306.21 539.012,306.543 538.512,306.911C538.012,307.279 537.613,307.612 537.314,307.911C537.015,308.21 536.79,308.359 536.637,308.359C536.498,308.359 536.373,308.282 536.262,308.13L536.074,307.838Z" style="fill-rule:nonzero;"/>
            <path d="M557.637,310.421C557.942,309.491 558.304,308.664 558.72,307.942C559.137,307.22 559.62,306.609 560.168,306.109C560.717,305.609 561.338,305.23 562.033,304.973C562.727,304.717 563.512,304.588 564.387,304.588C564.79,304.588 565.203,304.619 565.627,304.682C566.05,304.744 566.429,304.873 566.762,305.067L566.637,305.713C566.581,305.866 566.484,305.942 566.345,305.942C566.192,305.942 565.96,305.89 565.647,305.786C565.335,305.682 564.873,305.63 564.262,305.63C563.401,305.63 562.633,305.765 561.96,306.036C561.286,306.307 560.689,306.706 560.168,307.234C559.647,307.762 559.186,308.421 558.783,309.213C558.38,310.005 558.012,310.928 557.679,311.984L557.679,325.463L556.574,325.463L556.574,304.921L557.074,304.921C557.352,304.921 557.498,305.074 557.512,305.38L557.637,310.421Z" style="fill-rule:nonzero;"/>
            <path d="M572.387,304.921L572.387,325.463L571.304,325.463L571.304,304.921L572.387,304.921ZM573.283,297.505C573.283,297.699 573.241,297.88 573.158,298.046C573.074,298.213 572.967,298.362 572.835,298.494C572.703,298.626 572.55,298.73 572.377,298.807C572.203,298.883 572.026,298.921 571.845,298.921C571.456,298.921 571.12,298.779 570.835,298.494C570.55,298.21 570.408,297.88 570.408,297.505C570.408,297.116 570.55,296.779 570.835,296.494C571.12,296.21 571.456,296.067 571.845,296.067C572.026,296.067 572.203,296.105 572.377,296.182C572.55,296.258 572.703,296.362 572.835,296.494C572.967,296.626 573.074,296.779 573.158,296.953C573.241,297.126 573.283,297.31 573.283,297.505Z" style="fill-rule:nonzero;"/>
            <path d="M581.033,308.901C581.991,307.581 583.133,306.532 584.46,305.755C585.786,304.977 587.234,304.588 588.804,304.588C589.942,304.588 590.939,304.765 591.793,305.119C592.647,305.473 593.356,305.98 593.918,306.64C594.481,307.3 594.904,308.109 595.189,309.067C595.474,310.026 595.616,311.109 595.616,312.317L595.616,325.463L594.512,325.463L594.512,312.317C594.512,311.248 594.394,310.289 594.158,309.442C593.922,308.595 593.557,307.876 593.064,307.286C592.571,306.696 591.956,306.244 591.22,305.932C590.484,305.619 589.616,305.463 588.616,305.463C587.116,305.463 585.731,305.855 584.46,306.64C583.189,307.425 582.061,308.512 581.074,309.901L581.074,325.463L579.97,325.463L579.97,304.921L580.491,304.921C580.755,304.921 580.894,305.06 580.908,305.338L581.033,308.901Z" style="fill-rule:nonzero;"/>
            <path d="M614.408,315.171C610.213,315.31 607.113,315.831 605.106,316.734C603.099,317.637 602.095,318.907 602.095,320.546C602.095,321.31 602.224,321.97 602.481,322.526C602.738,323.081 603.078,323.543 603.502,323.911C603.925,324.279 604.408,324.55 604.949,324.723C605.491,324.897 606.047,324.984 606.616,324.984C607.505,324.984 608.317,324.883 609.054,324.682C609.79,324.48 610.47,324.206 611.095,323.859C611.72,323.512 612.304,323.102 612.845,322.63C613.387,322.157 613.908,321.657 614.408,321.13L614.408,315.171ZM602.116,307.838C603.144,306.782 604.22,305.977 605.345,305.421C606.47,304.866 607.755,304.588 609.199,304.588C610.269,304.588 611.199,304.758 611.991,305.098C612.783,305.439 613.439,305.928 613.96,306.567C614.481,307.206 614.866,307.98 615.116,308.89C615.366,309.8 615.491,310.824 615.491,311.963L615.491,325.463L615.116,325.463C614.838,325.463 614.679,325.317 614.637,325.026L614.429,321.984C613.859,322.567 613.29,323.095 612.72,323.567C612.151,324.039 611.547,324.439 610.908,324.765C610.269,325.092 609.581,325.345 608.845,325.526C608.109,325.706 607.297,325.796 606.408,325.796C605.755,325.796 605.109,325.699 604.47,325.505C603.831,325.31 603.255,325.005 602.741,324.588C602.227,324.171 601.814,323.633 601.502,322.973C601.189,322.314 601.033,321.519 601.033,320.588C601.033,319.685 601.293,318.866 601.814,318.13C602.335,317.394 603.144,316.758 604.241,316.223C605.338,315.689 606.727,315.265 608.408,314.953C610.088,314.64 612.088,314.456 614.408,314.401L614.408,311.963C614.408,309.907 613.963,308.31 613.074,307.171C612.186,306.032 610.866,305.463 609.116,305.463C608.074,305.463 607.179,305.612 606.429,305.911C605.679,306.21 605.054,306.543 604.554,306.911C604.054,307.279 603.654,307.612 603.356,307.911C603.057,308.21 602.831,308.359 602.679,308.359C602.54,308.359 602.415,308.282 602.304,308.13L602.116,307.838Z" style="fill-rule:nonzero;"/>
            <path d="M623.679,310.421C623.984,309.491 624.345,308.664 624.762,307.942C625.179,307.22 625.661,306.609 626.21,306.109C626.758,305.609 627.38,305.23 628.074,304.973C628.769,304.717 629.554,304.588 630.429,304.588C630.831,304.588 631.245,304.619 631.668,304.682C632.092,304.744 632.47,304.873 632.804,305.067L632.679,305.713C632.623,305.866 632.526,305.942 632.387,305.942C632.234,305.942 632.002,305.89 631.689,305.786C631.377,305.682 630.915,305.63 630.304,305.63C629.442,305.63 628.675,305.765 628.002,306.036C627.328,306.307 626.731,306.706 626.21,307.234C625.689,307.762 625.227,308.421 624.824,309.213C624.422,310.005 624.054,310.928 623.72,311.984L623.72,325.463L622.616,325.463L622.616,304.921L623.116,304.921C623.394,304.921 623.54,305.074 623.554,305.38L623.679,310.421Z" style="fill-rule:nonzero;"/>
            <path d="M648.304,315.171C644.109,315.31 641.008,315.831 639.002,316.734C636.995,317.637 635.991,318.907 635.991,320.546C635.991,321.31 636.12,321.97 636.377,322.526C636.633,323.081 636.974,323.543 637.397,323.911C637.821,324.279 638.304,324.55 638.845,324.723C639.387,324.897 639.942,324.984 640.512,324.984C641.401,324.984 642.213,324.883 642.949,324.682C643.686,324.48 644.366,324.206 644.991,323.859C645.616,323.512 646.199,323.102 646.741,322.63C647.283,322.157 647.804,321.657 648.304,321.13L648.304,315.171ZM636.012,307.838C637.04,306.782 638.116,305.977 639.241,305.421C640.366,304.866 641.651,304.588 643.095,304.588C644.165,304.588 645.095,304.758 645.887,305.098C646.679,305.439 647.335,305.928 647.856,306.567C648.377,307.206 648.762,307.98 649.012,308.89C649.262,309.8 649.387,310.824 649.387,311.963L649.387,325.463L649.012,325.463C648.734,325.463 648.574,325.317 648.533,325.026L648.324,321.984C647.755,322.567 647.186,323.095 646.616,323.567C646.047,324.039 645.442,324.439 644.804,324.765C644.165,325.092 643.477,325.345 642.741,325.526C642.005,325.706 641.192,325.796 640.304,325.796C639.651,325.796 639.005,325.699 638.366,325.505C637.727,325.31 637.151,325.005 636.637,324.588C636.123,324.171 635.71,323.633 635.397,322.973C635.085,322.314 634.929,321.519 634.929,320.588C634.929,319.685 635.189,318.866 635.71,318.13C636.231,317.394 637.04,316.758 638.137,316.223C639.234,315.689 640.623,315.265 642.304,314.953C643.984,314.64 645.984,314.456 648.304,314.401L648.304,311.963C648.304,309.907 647.859,308.31 646.97,307.171C646.081,306.032 644.762,305.463 643.012,305.463C641.97,305.463 641.074,305.612 640.324,305.911C639.574,306.21 638.949,306.543 638.449,306.911C637.949,307.279 637.55,307.612 637.252,307.911C636.953,308.21 636.727,308.359 636.574,308.359C636.436,308.359 636.311,308.282 636.199,308.13L636.012,307.838Z" style="fill-rule:nonzero;"/>
            <path d="M672.491,304.921L660.512,332.359C660.442,332.498 660.359,332.623 660.262,332.734C660.165,332.845 660.026,332.901 659.845,332.901L659.116,332.901L662.658,324.963L653.866,304.921L654.699,304.921C654.852,304.921 654.974,304.963 655.064,305.046C655.154,305.13 655.213,305.213 655.241,305.296L662.908,322.88C663.047,323.185 663.151,323.505 663.22,323.838C663.317,323.546 663.436,323.227 663.574,322.88L671.199,305.296C671.255,305.185 671.328,305.095 671.418,305.026C671.508,304.956 671.609,304.921 671.72,304.921L672.491,304.921Z" style="fill-rule:nonzero;"/>
            <path d="M688.491,315.171C684.297,315.31 681.196,315.831 679.189,316.734C677.182,317.637 676.179,318.907 676.179,320.546C676.179,321.31 676.307,321.97 676.564,322.526C676.821,323.081 677.161,323.543 677.585,323.911C678.008,324.279 678.491,324.55 679.033,324.723C679.574,324.897 680.13,324.984 680.699,324.984C681.588,324.984 682.401,324.883 683.137,324.682C683.873,324.48 684.554,324.206 685.179,323.859C685.804,323.512 686.387,323.102 686.929,322.63C687.47,322.157 687.991,321.657 688.491,321.13L688.491,315.171ZM676.199,307.838C677.227,306.782 678.304,305.977 679.429,305.421C680.554,304.866 681.838,304.588 683.283,304.588C684.352,304.588 685.283,304.758 686.074,305.098C686.866,305.439 687.522,305.928 688.043,306.567C688.564,307.206 688.949,307.98 689.199,308.89C689.449,309.8 689.574,310.824 689.574,311.963L689.574,325.463L689.199,325.463C688.922,325.463 688.762,325.317 688.72,325.026L688.512,321.984C687.942,322.567 687.373,323.095 686.804,323.567C686.234,324.039 685.63,324.439 684.991,324.765C684.352,325.092 683.665,325.345 682.929,325.526C682.192,325.706 681.38,325.796 680.491,325.796C679.838,325.796 679.192,325.699 678.554,325.505C677.915,325.31 677.338,325.005 676.824,324.588C676.311,324.171 675.897,323.633 675.585,322.973C675.272,322.314 675.116,321.519 675.116,320.588C675.116,319.685 675.377,318.866 675.897,318.13C676.418,317.394 677.227,316.758 678.324,316.223C679.422,315.689 680.811,315.265 682.491,314.953C684.172,314.64 686.172,314.456 688.491,314.401L688.491,311.963C688.491,309.907 688.047,308.31 687.158,307.171C686.269,306.032 684.949,305.463 683.199,305.463C682.158,305.463 681.262,305.612 680.512,305.911C679.762,306.21 679.137,306.543 678.637,306.911C678.137,307.279 677.738,307.612 677.439,307.911C677.14,308.21 676.915,308.359 676.762,308.359C676.623,308.359 676.498,308.282 676.387,308.13L676.199,307.838Z" style="fill-rule:nonzero;"/>
            <path d="M697.762,308.901C698.72,307.581 699.863,306.532 701.189,305.755C702.515,304.977 703.963,304.588 705.533,304.588C706.672,304.588 707.668,304.765 708.522,305.119C709.377,305.473 710.085,305.98 710.647,306.64C711.21,307.3 711.633,308.109 711.918,309.067C712.203,310.026 712.345,311.109 712.345,312.317L712.345,325.463L711.241,325.463L711.241,312.317C711.241,311.248 711.123,310.289 710.887,309.442C710.651,308.595 710.286,307.876 709.793,307.286C709.3,306.696 708.686,306.244 707.949,305.932C707.213,305.619 706.345,305.463 705.345,305.463C703.845,305.463 702.46,305.855 701.189,306.64C699.918,307.425 698.79,308.512 697.804,309.901L697.804,325.463L696.699,325.463L696.699,304.921L697.22,304.921C697.484,304.921 697.623,305.06 697.637,305.338L697.762,308.901Z" style="fill-rule:nonzero;"/>
            <path d="M760.199,296.171L760.199,325.463L759.199,325.463L759.199,298.671C759.199,298.56 759.203,298.449 759.21,298.338C759.217,298.227 759.22,298.116 759.22,298.005L746.929,319.567C746.79,319.803 746.623,319.921 746.429,319.921L746.22,319.921C746.012,319.921 745.838,319.803 745.699,319.567L733.033,297.963C733.047,298.088 733.057,298.21 733.064,298.328C733.071,298.446 733.074,298.56 733.074,298.671L733.074,325.463L732.074,325.463L732.074,296.171L732.762,296.171C732.873,296.171 732.967,296.189 733.043,296.223C733.12,296.258 733.192,296.331 733.262,296.442L745.97,318.026C746.095,318.289 746.213,318.546 746.324,318.796C746.38,318.671 746.436,318.543 746.491,318.411C746.547,318.279 746.609,318.144 746.679,318.005L759.012,296.442C759.081,296.331 759.154,296.258 759.231,296.223C759.307,296.189 759.401,296.171 759.512,296.171L760.199,296.171Z" style="fill-rule:nonzero;"/>
            <path d="M782.616,313.213C782.616,311.977 782.439,310.876 782.085,309.911C781.731,308.946 781.245,308.13 780.627,307.463C780.008,306.796 779.276,306.289 778.429,305.942C777.581,305.595 776.665,305.421 775.679,305.421C774.512,305.421 773.467,305.605 772.543,305.973C771.62,306.342 770.824,306.866 770.158,307.546C769.491,308.227 768.953,309.046 768.543,310.005C768.133,310.963 767.866,312.032 767.741,313.213L782.616,313.213ZM783.074,322.942C782.797,323.289 782.408,323.63 781.908,323.963C781.408,324.296 780.835,324.592 780.189,324.848C779.543,325.105 778.842,325.314 778.085,325.473C777.328,325.633 776.554,325.713 775.762,325.713C774.359,325.713 773.092,325.467 771.96,324.973C770.828,324.48 769.863,323.769 769.064,322.838C768.265,321.907 767.651,320.765 767.22,319.411C766.79,318.057 766.574,316.512 766.574,314.776C766.574,313.276 766.779,311.904 767.189,310.661C767.599,309.418 768.192,308.345 768.97,307.442C769.748,306.539 770.699,305.838 771.824,305.338C772.949,304.838 774.227,304.588 775.658,304.588C776.769,304.588 777.807,304.782 778.772,305.171C779.738,305.56 780.581,306.133 781.304,306.89C782.026,307.647 782.592,308.581 783.002,309.692C783.411,310.803 783.616,312.074 783.616,313.505C783.616,313.796 783.491,313.942 783.241,313.942L767.679,313.942C767.665,314.081 767.658,314.217 767.658,314.348C767.658,314.48 767.658,314.623 767.658,314.776C767.658,316.414 767.852,317.859 768.241,319.109C768.63,320.359 769.179,321.407 769.887,322.255C770.595,323.102 771.453,323.744 772.46,324.182C773.467,324.619 774.588,324.838 775.824,324.838C776.922,324.838 777.873,324.717 778.679,324.473C779.484,324.23 780.158,323.963 780.699,323.671C781.241,323.38 781.661,323.112 781.96,322.869C782.258,322.626 782.449,322.505 782.533,322.505C782.644,322.505 782.734,322.546 782.804,322.63L783.074,322.942Z" style="fill-rule:nonzero;"/>
            <path d="M789.429,325.463L789.429,304.921L789.949,304.921C790.213,304.921 790.352,305.06 790.366,305.338L790.491,308.796C791.297,307.519 792.245,306.498 793.335,305.734C794.425,304.97 795.63,304.588 796.949,304.588C798.519,304.588 799.762,305.06 800.679,306.005C801.595,306.949 802.192,308.276 802.47,309.984C802.679,309.067 803.002,308.272 803.439,307.598C803.877,306.925 804.387,306.362 804.97,305.911C805.554,305.46 806.192,305.126 806.887,304.911C807.581,304.696 808.297,304.588 809.033,304.588C810.019,304.588 810.911,304.758 811.71,305.098C812.508,305.439 813.186,305.935 813.741,306.588C814.297,307.241 814.724,308.046 815.022,309.005C815.321,309.963 815.47,311.067 815.47,312.317L815.47,325.463L814.366,325.463L814.366,312.317C814.366,310.095 813.89,308.397 812.939,307.223C811.988,306.05 810.63,305.463 808.866,305.463C808.088,305.463 807.342,305.605 806.627,305.89C805.911,306.175 805.279,306.605 804.731,307.182C804.182,307.758 803.741,308.473 803.408,309.328C803.074,310.182 802.908,311.178 802.908,312.317L802.908,325.463L801.804,325.463L801.804,312.317C801.804,310.137 801.373,308.449 800.512,307.255C799.651,306.06 798.387,305.463 796.72,305.463C795.47,305.463 794.324,305.852 793.283,306.63C792.241,307.407 791.324,308.477 790.533,309.838L790.533,325.463L789.429,325.463Z" style="fill-rule:nonzero;"/>
            <path d="M830.429,304.588C831.887,304.588 833.182,304.842 834.314,305.348C835.446,305.855 836.401,306.571 837.179,307.494C837.956,308.418 838.547,309.532 838.949,310.838C839.352,312.144 839.554,313.595 839.554,315.192C839.554,316.789 839.352,318.237 838.949,319.536C838.547,320.835 837.956,321.942 837.179,322.859C836.401,323.776 835.446,324.48 834.314,324.973C833.182,325.467 831.887,325.713 830.429,325.713C828.97,325.713 827.675,325.467 826.543,324.973C825.411,324.48 824.456,323.776 823.679,322.859C822.901,321.942 822.311,320.835 821.908,319.536C821.505,318.237 821.304,316.789 821.304,315.192C821.304,313.595 821.505,312.144 821.908,310.838C822.311,309.532 822.901,308.418 823.679,307.494C824.456,306.571 825.411,305.855 826.543,305.348C827.675,304.842 828.97,304.588 830.429,304.588ZM830.429,324.838C831.762,324.838 832.929,324.609 833.929,324.151C834.929,323.692 835.765,323.039 836.439,322.192C837.113,321.345 837.616,320.331 837.949,319.151C838.283,317.97 838.449,316.651 838.449,315.192C838.449,313.734 838.283,312.407 837.949,311.213C837.616,310.019 837.113,308.994 836.439,308.14C835.765,307.286 834.929,306.626 833.929,306.161C832.929,305.696 831.762,305.463 830.429,305.463C829.095,305.463 827.929,305.696 826.929,306.161C825.929,306.626 825.092,307.286 824.418,308.14C823.745,308.994 823.241,310.019 822.908,311.213C822.574,312.407 822.408,313.734 822.408,315.192C822.408,316.651 822.574,317.97 822.908,319.151C823.241,320.331 823.745,321.345 824.418,322.192C825.092,323.039 825.929,323.692 826.929,324.151C827.929,324.609 829.095,324.838 830.429,324.838Z" style="fill-rule:nonzero;"/>
            <path d="M846.699,310.421C847.005,309.491 847.366,308.664 847.783,307.942C848.199,307.22 848.682,306.609 849.231,306.109C849.779,305.609 850.401,305.23 851.095,304.973C851.79,304.717 852.574,304.588 853.449,304.588C853.852,304.588 854.265,304.619 854.689,304.682C855.113,304.744 855.491,304.873 855.824,305.067L855.699,305.713C855.644,305.866 855.547,305.942 855.408,305.942C855.255,305.942 855.022,305.89 854.71,305.786C854.397,305.682 853.936,305.63 853.324,305.63C852.463,305.63 851.696,305.765 851.022,306.036C850.349,306.307 849.752,306.706 849.231,307.234C848.71,307.762 848.248,308.421 847.845,309.213C847.442,310.005 847.074,310.928 846.741,311.984L846.741,325.463L845.637,325.463L845.637,304.921L846.137,304.921C846.415,304.921 846.561,305.074 846.574,305.38L846.699,310.421Z" style="fill-rule:nonzero;"/>
            <path d="M861.449,304.921L861.449,325.463L860.366,325.463L860.366,304.921L861.449,304.921ZM862.345,297.505C862.345,297.699 862.304,297.88 862.22,298.046C862.137,298.213 862.029,298.362 861.897,298.494C861.765,298.626 861.613,298.73 861.439,298.807C861.265,298.883 861.088,298.921 860.908,298.921C860.519,298.921 860.182,298.779 859.897,298.494C859.613,298.21 859.47,297.88 859.47,297.505C859.47,297.116 859.613,296.779 859.897,296.494C860.182,296.21 860.519,296.067 860.908,296.067C861.088,296.067 861.265,296.105 861.439,296.182C861.613,296.258 861.765,296.362 861.897,296.494C862.029,296.626 862.137,296.779 862.22,296.953C862.304,297.126 862.345,297.31 862.345,297.505Z" style="fill-rule:nonzero;"/>
            <path d="M880.72,315.171C876.526,315.31 873.425,315.831 871.418,316.734C869.411,317.637 868.408,318.907 868.408,320.546C868.408,321.31 868.536,321.97 868.793,322.526C869.05,323.081 869.39,323.543 869.814,323.911C870.238,324.279 870.72,324.55 871.262,324.723C871.804,324.897 872.359,324.984 872.929,324.984C873.817,324.984 874.63,324.883 875.366,324.682C876.102,324.48 876.783,324.206 877.408,323.859C878.033,323.512 878.616,323.102 879.158,322.63C879.699,322.157 880.22,321.657 880.72,321.13L880.72,315.171ZM868.429,307.838C869.456,306.782 870.533,305.977 871.658,305.421C872.783,304.866 874.067,304.588 875.512,304.588C876.581,304.588 877.512,304.758 878.304,305.098C879.095,305.439 879.752,305.928 880.272,306.567C880.793,307.206 881.179,307.98 881.429,308.89C881.679,309.8 881.804,310.824 881.804,311.963L881.804,325.463L881.429,325.463C881.151,325.463 880.991,325.317 880.949,325.026L880.741,321.984C880.172,322.567 879.602,323.095 879.033,323.567C878.463,324.039 877.859,324.439 877.22,324.765C876.581,325.092 875.894,325.345 875.158,325.526C874.422,325.706 873.609,325.796 872.72,325.796C872.067,325.796 871.422,325.699 870.783,325.505C870.144,325.31 869.567,325.005 869.054,324.588C868.54,324.171 868.127,323.633 867.814,322.973C867.502,322.314 867.345,321.519 867.345,320.588C867.345,319.685 867.606,318.866 868.127,318.13C868.647,317.394 869.456,316.758 870.554,316.223C871.651,315.689 873.04,315.265 874.72,314.953C876.401,314.64 878.401,314.456 880.72,314.401L880.72,311.963C880.72,309.907 880.276,308.31 879.387,307.171C878.498,306.032 877.179,305.463 875.429,305.463C874.387,305.463 873.491,305.612 872.741,305.911C871.991,306.21 871.366,306.543 870.866,306.911C870.366,307.279 869.967,307.612 869.668,307.911C869.37,308.21 869.144,308.359 868.991,308.359C868.852,308.359 868.727,308.282 868.616,308.13L868.429,307.838Z" style="fill-rule:nonzero;"/>
            <rect x="889.158" y="295.338" width="1.083" height="30.125" style="fill-rule:nonzero;"/>
            <path d="M924.262,299.213C924.179,299.352 924.061,299.421 923.908,299.421C923.755,299.421 923.543,299.286 923.272,299.015C923.002,298.744 922.623,298.442 922.137,298.109C921.651,297.776 921.026,297.473 920.262,297.203C919.498,296.932 918.554,296.796 917.429,296.796C916.29,296.796 915.279,296.967 914.397,297.307C913.515,297.647 912.776,298.109 912.179,298.692C911.581,299.276 911.13,299.946 910.824,300.703C910.519,301.46 910.366,302.255 910.366,303.088C910.366,304.157 910.581,305.05 911.012,305.765C911.442,306.48 912.012,307.081 912.72,307.567C913.429,308.053 914.231,308.463 915.127,308.796C916.022,309.13 916.942,309.453 917.887,309.765C918.831,310.078 919.752,310.411 920.647,310.765C921.543,311.119 922.345,311.567 923.054,312.109C923.762,312.651 924.331,313.321 924.762,314.119C925.192,314.918 925.408,315.907 925.408,317.088C925.408,318.296 925.203,319.432 924.793,320.494C924.383,321.557 923.786,322.48 923.002,323.265C922.217,324.05 921.258,324.668 920.127,325.119C918.995,325.571 917.706,325.796 916.262,325.796C915.276,325.796 914.383,325.71 913.585,325.536C912.786,325.362 912.05,325.112 911.377,324.786C910.703,324.46 910.085,324.06 909.522,323.588C908.96,323.116 908.422,322.581 907.908,321.984L908.179,321.567C908.248,321.498 908.307,321.446 908.356,321.411C908.404,321.376 908.477,321.359 908.574,321.359C908.672,321.359 908.807,321.446 908.981,321.619C909.154,321.793 909.38,322.008 909.658,322.265C909.936,322.522 910.269,322.8 910.658,323.098C911.047,323.397 911.508,323.675 912.043,323.932C912.578,324.189 913.196,324.404 913.897,324.578C914.599,324.751 915.394,324.838 916.283,324.838C917.547,324.838 918.679,324.64 919.679,324.244C920.679,323.848 921.522,323.307 922.21,322.619C922.897,321.932 923.422,321.13 923.783,320.213C924.144,319.296 924.324,318.317 924.324,317.276C924.324,316.164 924.109,315.248 923.679,314.526C923.248,313.803 922.682,313.199 921.981,312.713C921.279,312.227 920.477,311.821 919.574,311.494C918.672,311.168 917.752,310.855 916.814,310.557C915.877,310.258 914.956,309.932 914.054,309.578C913.151,309.223 912.349,308.772 911.647,308.223C910.946,307.675 910.38,306.994 909.949,306.182C909.519,305.369 909.304,304.352 909.304,303.13C909.304,302.171 909.484,301.255 909.845,300.38C910.206,299.505 910.731,298.73 911.418,298.057C912.106,297.383 912.953,296.845 913.96,296.442C914.967,296.039 916.123,295.838 917.429,295.838C918.901,295.838 920.203,296.074 921.335,296.546C922.467,297.019 923.526,297.755 924.512,298.755L924.262,299.213Z" style="fill-rule:nonzero;"/>
            <path d="M944.908,307.171C944.866,307.213 944.824,307.251 944.783,307.286C944.741,307.321 944.686,307.338 944.616,307.338C944.505,307.338 944.331,307.241 944.095,307.046C943.859,306.852 943.533,306.637 943.116,306.401C942.699,306.164 942.172,305.949 941.533,305.755C940.894,305.56 940.123,305.463 939.22,305.463C937.942,305.463 936.807,305.689 935.814,306.14C934.821,306.592 933.981,307.241 933.293,308.088C932.606,308.935 932.081,309.956 931.72,311.151C931.359,312.345 931.179,313.692 931.179,315.192C931.179,316.734 931.363,318.105 931.731,319.307C932.099,320.508 932.62,321.519 933.293,322.338C933.967,323.157 934.779,323.782 935.731,324.213C936.682,324.644 937.741,324.859 938.908,324.859C939.963,324.859 940.849,324.737 941.564,324.494C942.279,324.251 942.873,323.98 943.345,323.682C943.817,323.383 944.179,323.112 944.429,322.869C944.679,322.626 944.859,322.505 944.97,322.505C945.081,322.505 945.172,322.546 945.241,322.63L945.491,322.942C945.241,323.289 944.897,323.63 944.46,323.963C944.022,324.296 943.515,324.592 942.939,324.848C942.363,325.105 941.724,325.314 941.022,325.473C940.321,325.633 939.574,325.713 938.783,325.713C937.463,325.713 936.269,325.477 935.199,325.005C934.13,324.532 933.217,323.845 932.46,322.942C931.703,322.039 931.116,320.935 930.699,319.63C930.283,318.324 930.074,316.845 930.074,315.192C930.074,313.609 930.279,312.164 930.689,310.859C931.099,309.553 931.692,308.439 932.47,307.515C933.248,306.592 934.199,305.873 935.324,305.359C936.449,304.845 937.734,304.588 939.179,304.588C940.456,304.588 941.595,304.793 942.595,305.203C943.595,305.612 944.456,306.151 945.179,306.817L944.908,307.171Z" style="fill-rule:nonzero;"/>
            <path d="M951.97,308.838C952.929,307.546 954.067,306.515 955.387,305.744C956.706,304.973 958.144,304.588 959.699,304.588C960.838,304.588 961.835,304.765 962.689,305.119C963.543,305.473 964.252,305.98 964.814,306.64C965.377,307.3 965.8,308.109 966.085,309.067C966.37,310.026 966.512,311.109 966.512,312.317L966.512,325.463L965.408,325.463L965.408,312.317C965.408,311.248 965.29,310.289 965.054,309.442C964.817,308.595 964.453,307.876 963.96,307.286C963.467,306.696 962.852,306.244 962.116,305.932C961.38,305.619 960.512,305.463 959.512,305.463C958.012,305.463 956.627,305.855 955.356,306.64C954.085,307.425 952.956,308.512 951.97,309.901L951.97,325.463L950.866,325.463L950.866,295.338L951.97,295.338L951.97,308.838Z" style="fill-rule:nonzero;"/>
            <path d="M981.47,304.588C982.929,304.588 984.224,304.842 985.356,305.348C986.488,305.855 987.442,306.571 988.22,307.494C988.998,308.418 989.588,309.532 989.991,310.838C990.394,312.144 990.595,313.595 990.595,315.192C990.595,316.789 990.394,318.237 989.991,319.536C989.588,320.835 988.998,321.942 988.22,322.859C987.442,323.776 986.488,324.48 985.356,324.973C984.224,325.467 982.929,325.713 981.47,325.713C980.012,325.713 978.717,325.467 977.585,324.973C976.453,324.48 975.498,323.776 974.72,322.859C973.942,321.942 973.352,320.835 972.949,319.536C972.547,318.237 972.345,316.789 972.345,315.192C972.345,313.595 972.547,312.144 972.949,310.838C973.352,309.532 973.942,308.418 974.72,307.494C975.498,306.571 976.453,305.855 977.585,305.348C978.717,304.842 980.012,304.588 981.47,304.588ZM981.47,324.838C982.804,324.838 983.97,324.609 984.97,324.151C985.97,323.692 986.807,323.039 987.481,322.192C988.154,321.345 988.658,320.331 988.991,319.151C989.324,317.97 989.491,316.651 989.491,315.192C989.491,313.734 989.324,312.407 988.991,311.213C988.658,310.019 988.154,308.994 987.481,308.14C986.807,307.286 985.97,306.626 984.97,306.161C983.97,305.696 982.804,305.463 981.47,305.463C980.137,305.463 978.97,305.696 977.97,306.161C976.97,306.626 976.133,307.286 975.46,308.14C974.786,308.994 974.283,310.019 973.949,311.213C973.616,312.407 973.449,313.734 973.449,315.192C973.449,316.651 973.616,317.97 973.949,319.151C974.283,320.331 974.786,321.345 975.46,322.192C976.133,323.039 976.97,323.692 977.97,324.151C978.97,324.609 980.137,324.838 981.47,324.838Z" style="fill-rule:nonzero;"/>
            <rect x="996.908" y="295.338" width="1.083" height="30.125" style="fill-rule:nonzero;"/>
            <path d="M1017.24,315.171C1013.05,315.31 1009.95,315.831 1007.94,316.734C1005.93,317.637 1004.93,318.907 1004.93,320.546C1004.93,321.31 1005.06,321.97 1005.31,322.526C1005.57,323.081 1005.91,323.543 1006.34,323.911C1006.76,324.279 1007.24,324.55 1007.78,324.723C1008.32,324.897 1008.88,324.984 1009.45,324.984C1010.34,324.984 1011.15,324.883 1011.89,324.682C1012.62,324.48 1013.3,324.206 1013.93,323.859C1014.55,323.512 1015.14,323.102 1015.68,322.63C1016.22,322.157 1016.74,321.657 1017.24,321.13L1017.24,315.171ZM1004.95,307.838C1005.98,306.782 1007.05,305.977 1008.18,305.421C1009.3,304.866 1010.59,304.588 1012.03,304.588C1013.1,304.588 1014.03,304.758 1014.82,305.098C1015.62,305.439 1016.27,305.928 1016.79,306.567C1017.31,307.206 1017.7,307.98 1017.95,308.89C1018.2,309.8 1018.32,310.824 1018.32,311.963L1018.32,325.463L1017.95,325.463C1017.67,325.463 1017.51,325.317 1017.47,325.026L1017.26,321.984C1016.69,322.567 1016.12,323.095 1015.55,323.567C1014.98,324.039 1014.38,324.439 1013.74,324.765C1013.1,325.092 1012.42,325.345 1011.68,325.526C1010.94,325.706 1010.13,325.796 1009.24,325.796C1008.59,325.796 1007.94,325.699 1007.3,325.505C1006.67,325.31 1006.09,325.005 1005.57,324.588C1005.06,324.171 1004.65,323.633 1004.34,322.973C1004.02,322.314 1003.87,321.519 1003.87,320.588C1003.87,319.685 1004.13,318.866 1004.65,318.13C1005.17,317.394 1005.98,316.758 1007.07,316.223C1008.17,315.689 1009.56,315.265 1011.24,314.953C1012.92,314.64 1014.92,314.456 1017.24,314.401L1017.24,311.963C1017.24,309.907 1016.8,308.31 1015.91,307.171C1015.02,306.032 1013.7,305.463 1011.95,305.463C1010.91,305.463 1010.01,305.612 1009.26,305.911C1008.51,306.21 1007.89,306.543 1007.39,306.911C1006.89,307.279 1006.49,307.612 1006.19,307.911C1005.89,308.21 1005.67,308.359 1005.51,308.359C1005.37,308.359 1005.25,308.282 1005.14,308.13L1004.95,307.838Z" style="fill-rule:nonzero;"/>
            <path d="M1026.51,310.421C1026.82,309.491 1027.18,308.664 1027.6,307.942C1028.01,307.22 1028.5,306.609 1029.04,306.109C1029.59,305.609 1030.21,305.23 1030.91,304.973C1031.6,304.717 1032.39,304.588 1033.26,304.588C1033.66,304.588 1034.08,304.619 1034.5,304.682C1034.92,304.744 1035.3,304.873 1035.64,305.067L1035.51,305.713C1035.46,305.866 1035.36,305.942 1035.22,305.942C1035.07,305.942 1034.84,305.89 1034.52,305.786C1034.21,305.682 1033.75,305.63 1033.14,305.63C1032.28,305.63 1031.51,305.765 1030.84,306.036C1030.16,306.307 1029.56,306.706 1029.04,307.234C1028.52,307.762 1028.06,308.421 1027.66,309.213C1027.26,310.005 1026.89,310.928 1026.55,311.984L1026.55,325.463L1025.45,325.463L1025.45,304.921L1025.95,304.921C1026.23,304.921 1026.37,305.074 1026.39,305.38L1026.51,310.421Z" style="fill-rule:nonzero;"/>
            <path d="M1050.57,307.026C1050.51,307.151 1050.4,307.213 1050.26,307.213C1050.14,307.213 1049.96,307.119 1049.73,306.932C1049.5,306.744 1049.19,306.543 1048.78,306.328C1048.38,306.112 1047.88,305.911 1047.27,305.723C1046.67,305.536 1045.92,305.442 1045.03,305.442C1044.21,305.442 1043.47,305.564 1042.79,305.807C1042.12,306.05 1041.54,306.373 1041.05,306.776C1040.57,307.178 1040.19,307.651 1039.93,308.192C1039.66,308.734 1039.53,309.296 1039.53,309.88C1039.53,310.574 1039.7,311.157 1040.04,311.63C1040.38,312.102 1040.83,312.501 1041.39,312.828C1041.94,313.154 1042.57,313.432 1043.28,313.661C1043.99,313.89 1044.71,314.119 1045.45,314.348C1046.19,314.578 1046.91,314.824 1047.62,315.088C1048.32,315.352 1048.96,315.678 1049.51,316.067C1050.07,316.456 1050.52,316.935 1050.86,317.505C1051.2,318.074 1051.37,318.776 1051.37,319.609C1051.37,320.47 1051.21,321.276 1050.91,322.026C1050.6,322.776 1050.15,323.432 1049.56,323.994C1048.97,324.557 1048.25,324.998 1047.4,325.317C1046.54,325.637 1045.57,325.796 1044.47,325.796C1043.73,325.796 1043.07,325.737 1042.47,325.619C1041.87,325.501 1041.32,325.335 1040.8,325.119C1040.29,324.904 1039.81,324.644 1039.37,324.338C1038.92,324.032 1038.49,323.692 1038.07,323.317L1038.35,322.963C1038.4,322.894 1038.45,322.842 1038.5,322.807C1038.55,322.772 1038.63,322.755 1038.74,322.755C1038.88,322.755 1039.08,322.869 1039.34,323.098C1039.59,323.328 1039.94,323.581 1040.38,323.859C1040.81,324.137 1041.37,324.39 1042.03,324.619C1042.7,324.848 1043.52,324.963 1044.49,324.963C1045.45,324.963 1046.29,324.828 1047.02,324.557C1047.75,324.286 1048.36,323.914 1048.86,323.442C1049.35,322.97 1049.72,322.418 1049.97,321.786C1050.22,321.154 1050.35,320.484 1050.35,319.776C1050.35,319.026 1050.17,318.401 1049.84,317.901C1049.5,317.401 1049.05,316.98 1048.49,316.64C1047.94,316.3 1047.3,316.012 1046.6,315.776C1045.89,315.539 1045.16,315.31 1044.43,315.088C1043.69,314.866 1042.97,314.626 1042.26,314.369C1041.55,314.112 1040.92,313.793 1040.37,313.411C1039.81,313.029 1039.36,312.56 1039.02,312.005C1038.68,311.449 1038.51,310.755 1038.51,309.921C1038.51,309.227 1038.67,308.557 1038.98,307.911C1039.29,307.265 1039.73,306.696 1040.3,306.203C1040.87,305.71 1041.56,305.317 1042.36,305.026C1043.15,304.734 1044.05,304.588 1045.03,304.588C1046.23,304.588 1047.28,304.755 1048.2,305.088C1049.12,305.421 1049.98,305.949 1050.8,306.671L1050.57,307.026Z" style="fill-rule:nonzero;"/>
            <path d="M1058.3,308.838C1059.26,307.546 1060.4,306.515 1061.72,305.744C1063.04,304.973 1064.48,304.588 1066.03,304.588C1067.17,304.588 1068.17,304.765 1069.02,305.119C1069.88,305.473 1070.59,305.98 1071.15,306.64C1071.71,307.3 1072.13,308.109 1072.42,309.067C1072.7,310.026 1072.85,311.109 1072.85,312.317L1072.85,325.463L1071.74,325.463L1071.74,312.317C1071.74,311.248 1071.62,310.289 1071.39,309.442C1071.15,308.595 1070.79,307.876 1070.29,307.286C1069.8,306.696 1069.19,306.244 1068.45,305.932C1067.71,305.619 1066.85,305.463 1065.85,305.463C1064.35,305.463 1062.96,305.855 1061.69,306.64C1060.42,307.425 1059.29,308.512 1058.3,309.901L1058.3,325.463L1057.2,325.463L1057.2,295.338L1058.3,295.338L1058.3,308.838Z" style="fill-rule:nonzero;"/>
            <path d="M1081.28,304.921L1081.28,325.463L1080.2,325.463L1080.2,304.921L1081.28,304.921ZM1082.18,297.505C1082.18,297.699 1082.14,297.88 1082.05,298.046C1081.97,298.213 1081.86,298.362 1081.73,298.494C1081.6,298.626 1081.45,298.73 1081.27,298.807C1081.1,298.883 1080.92,298.921 1080.74,298.921C1080.35,298.921 1080.02,298.779 1079.73,298.494C1079.45,298.21 1079.3,297.88 1079.3,297.505C1079.3,297.116 1079.45,296.779 1079.73,296.494C1080.02,296.21 1080.35,296.067 1080.74,296.067C1080.92,296.067 1081.1,296.105 1081.27,296.182C1081.45,296.258 1081.6,296.362 1081.73,296.494C1081.86,296.626 1081.97,296.779 1082.05,296.953C1082.14,297.126 1082.18,297.31 1082.18,297.505Z" style="fill-rule:nonzero;"/>
            <path d="M1089.97,321.192C1090.82,322.539 1091.76,323.487 1092.8,324.036C1093.85,324.585 1095.05,324.859 1096.41,324.859C1097.76,324.859 1098.93,324.612 1099.93,324.119C1100.93,323.626 1101.76,322.942 1102.43,322.067C1103.1,321.192 1103.6,320.157 1103.93,318.963C1104.26,317.769 1104.43,316.47 1104.43,315.067C1104.43,311.803 1103.81,309.387 1102.57,307.817C1101.34,306.248 1099.55,305.463 1097.2,305.463C1095.76,305.463 1094.42,305.859 1093.19,306.651C1091.96,307.442 1090.89,308.539 1089.97,309.942L1089.97,321.192ZM1089.93,308.921C1090.85,307.574 1091.94,306.515 1093.21,305.744C1094.48,304.973 1095.89,304.588 1097.43,304.588C1100.03,304.588 1102.03,305.449 1103.44,307.171C1104.85,308.894 1105.55,311.526 1105.55,315.067C1105.55,316.567 1105.36,317.963 1104.98,319.255C1104.6,320.546 1104.03,321.671 1103.27,322.63C1102.52,323.588 1101.58,324.342 1100.46,324.89C1099.34,325.439 1098.05,325.713 1096.57,325.713C1093.69,325.713 1091.48,324.581 1089.97,322.317L1089.97,332.901L1088.87,332.901L1088.87,304.921L1089.39,304.921C1089.65,304.921 1089.79,305.06 1089.8,305.338L1089.93,308.921Z" style="fill-rule:nonzero;"/>
            <path d="M1125.41,297.151L1125.41,310.567L1139.47,310.567L1139.47,311.546L1125.41,311.546L1125.41,325.463L1124.26,325.463L1124.26,296.171L1141.55,296.171L1141.55,297.151L1125.41,297.151Z" style="fill-rule:nonzero;"/>
            <path d="M1160.47,304.921L1160.47,325.463L1159.97,325.463C1159.72,325.463 1159.57,325.324 1159.53,325.046L1159.43,321.463C1158.46,322.782 1157.31,323.835 1155.99,324.619C1154.67,325.404 1153.22,325.796 1151.64,325.796C1150.5,325.796 1149.5,325.619 1148.65,325.265C1147.79,324.911 1147.09,324.404 1146.52,323.744C1145.96,323.085 1145.54,322.276 1145.25,321.317C1144.97,320.359 1144.82,319.276 1144.82,318.067L1144.82,304.921L1145.93,304.921L1145.93,318.067C1145.93,319.137 1146.05,320.095 1146.28,320.942C1146.52,321.789 1146.88,322.508 1147.38,323.098C1147.87,323.689 1148.49,324.14 1149.23,324.453C1149.97,324.765 1150.85,324.921 1151.85,324.921C1153.33,324.921 1154.71,324.529 1155.98,323.744C1157.25,322.96 1158.39,321.873 1159.39,320.484L1159.39,304.921L1160.47,304.921Z" style="fill-rule:nonzero;"/>
            <path d="M1168.82,308.901C1169.78,307.581 1170.92,306.532 1172.25,305.755C1173.58,304.977 1175.03,304.588 1176.6,304.588C1177.73,304.588 1178.73,304.765 1179.59,305.119C1180.44,305.473 1181.15,305.98 1181.71,306.64C1182.27,307.3 1182.7,308.109 1182.98,309.067C1183.27,310.026 1183.41,311.109 1183.41,312.317L1183.41,325.463L1182.3,325.463L1182.3,312.317C1182.3,311.248 1182.19,310.289 1181.95,309.442C1181.71,308.595 1181.35,307.876 1180.86,307.286C1180.36,306.696 1179.75,306.244 1179.01,305.932C1178.28,305.619 1177.41,305.463 1176.41,305.463C1174.91,305.463 1173.52,305.855 1172.25,306.64C1170.98,307.425 1169.85,308.512 1168.87,309.901L1168.87,325.463L1167.76,325.463L1167.76,304.921L1168.28,304.921C1168.55,304.921 1168.69,305.06 1168.7,305.338L1168.82,308.901Z" style="fill-rule:nonzero;"/>
            <path d="M1204.85,309.067C1203.98,307.748 1203.03,306.814 1201.99,306.265C1200.95,305.717 1199.76,305.442 1198.41,305.442C1197.06,305.442 1195.89,305.689 1194.89,306.182C1193.89,306.675 1193.05,307.359 1192.39,308.234C1191.72,309.109 1191.22,310.144 1190.89,311.338C1190.55,312.532 1190.39,313.831 1190.39,315.234C1190.39,318.498 1191,320.914 1192.23,322.484C1193.46,324.053 1195.26,324.838 1197.62,324.838C1199.06,324.838 1200.4,324.442 1201.63,323.651C1202.86,322.859 1203.93,321.762 1204.85,320.359L1204.85,309.067ZM1205.95,295.338L1205.95,325.463L1205.45,325.463C1205.17,325.463 1205.03,325.324 1205.01,325.046L1204.89,321.38C1203.97,322.727 1202.88,323.786 1201.61,324.557C1200.34,325.328 1198.93,325.713 1197.39,325.713C1194.78,325.713 1192.77,324.852 1191.37,323.13C1189.96,321.407 1189.26,318.776 1189.26,315.234C1189.26,313.734 1189.45,312.338 1189.84,311.046C1190.22,309.755 1190.79,308.63 1191.54,307.671C1192.3,306.713 1193.24,305.96 1194.36,305.411C1195.47,304.862 1196.77,304.588 1198.24,304.588C1199.71,304.588 1200.99,304.869 1202.06,305.432C1203.14,305.994 1204.07,306.838 1204.85,307.963L1204.85,295.338L1205.95,295.338Z" style="fill-rule:nonzero;"/>
        </g>
    </g>
</svg>
